<svg width="16" height="17" viewBox="0 0 16 17" fill="none" xmlns="http://www.w3.org/2000/svg">
<path d="M15.2124 14.872L11.4044 11.0594C12.3835 9.93889 12.92 8.52911 12.92 7.06147C12.92 3.63247 10.022 0.842651 6.45999 0.842651C2.89801 0.842651 0 3.63247 0 7.06147C0 10.4905 2.89801 13.2803 6.45999 13.2803C7.79721 13.2803 9.07152 12.892 10.161 12.155L13.998 15.9966C14.1583 16.1569 14.374 16.2453 14.6052 16.2453C14.824 16.2453 15.0316 16.165 15.1891 16.019C15.5239 15.7089 15.5346 15.1946 15.2124 14.872ZM6.45999 2.46495C9.09286 2.46495 11.2348 4.5269 11.2348 7.06147C11.2348 9.59605 9.09286 11.658 6.45999 11.658C3.82713 11.658 1.68522 9.59605 1.68522 7.06147C1.68522 4.5269 3.82713 2.46495 6.45999 2.46495Z" fill="white"/>
</svg>
